HIERARCHY
ROOT Hips
{
    OFFSET 0.000000 0.000000 0.000000
    CHANNELS 6 Xposition Yposition Zposition Zrotation Xrotation Yrotation
    JOINT Spine
    {
        OFFSET -0.000000 14.517291 0.000000
        CHANNELS 3 Zrotation Xrotation Yrotation
        JOINT Spine1
        {
            OFFSET -0.000000 37.558300 0.000000
            CHANNELS 3 Zrotation Xrotation Yrotation
            JOINT Neck
            {
                OFFSET -0.000000 37.404057 3.400369
                CHANNELS 3 Zrotation Xrotation Yrotation
                JOINT Head
                {
                    OFFSET -0.000000 24.785618 -3.540803
                    CHANNELS 3 Zrotation Xrotation Yrotation
                    End Site
                    {
                        OFFSET -0.000000 35.408028 0.000000
                    }
                }
            }
            JOINT LeftShoulder
            {
                OFFSET 6.992933 33.973492 -0.192664
                CHANNELS 3 Zrotation Xrotation Yrotation
                JOINT LeftArm
                {
                    OFFSET 21.527611 0.000000 0.000000
                    CHANNELS 3 Zrotation Xrotation Yrotation
                    JOINT LeftForeArm
                    {
                        OFFSET 56.353916 0.000000 0.000000
                        CHANNELS 3 Zrotation Xrotation Yrotation
                        JOINT LeftHand
                        {
                            OFFSET 47.774071 0.000000 0.000000
                            CHANNELS 3 Zrotation Xrotation Yrotation
                            End Site
                            {
                                OFFSET 26.556021 0.000000 0.000000
                            }
                        }
                    }
                }
            }
            JOINT RightShoulder
            {
                OFFSET -7.065357 33.973492 -0.192664
                CHANNELS 3 Zrotation Xrotation Yrotation
                JOINT RightArm
                {
                    OFFSET -21.527611 0.000000 0.000000
                    CHANNELS 3 Zrotation Xrotation Yrotation
                    JOINT RightForeArm
                    {
                        OFFSET -56.353916 0.000000 0.000000
                        CHANNELS 3 Zrotation Xrotation Yrotation
                        JOINT RightHand
                        {
                            OFFSET -47.774071 0.000000 0.000000
                            CHANNELS 3 Zrotation Xrotation Yrotation
                            End Site
                            {
                                OFFSET -26.556021 0.000000 0.000000
                            }
                        }
                    }
                }
            }
        }
    }
    JOINT LeftUpLeg
    {
        OFFSET 17.704014 0.000000 0.000000
        CHANNELS 3 Zrotation Xrotation Yrotation
        JOINT LeftLeg
        {
            OFFSET -0.000000 -81.181816 0.000000
            CHANNELS 3 Zrotation Xrotation Yrotation
            JOINT LeftFoot
            {
                OFFSET -0.000000 -62.821102 0.000000
                CHANNELS 3 Zrotation Xrotation Yrotation
                JOINT LeftToeBase
                {
                    OFFSET -0.000000 -11.507608 26.556021
                    CHANNELS 3 Zrotation Xrotation Yrotation
                    End Site
                    {
                        OFFSET -0.000000 0.000000 7.081605
                    }
                }
            }
        }
    }
    JOINT RightUpLeg
    {
        OFFSET -17.704014 0.000000 0.000000
        CHANNELS 3 Zrotation Xrotation Yrotation
        JOINT RightLeg
        {
            OFFSET -0.000000 -81.181816 0.000000
            CHANNELS 3 Zrotation Xrotation Yrotation
            JOINT RightFoot
            {
                OFFSET -0.000000 -62.821102 0.000000
                CHANNELS 3 Zrotation Xrotation Yrotation
                JOINT RightToeBase
                {
                    OFFSET -0.000000 -11.507608 26.556021
                    CHANNELS 3 Zrotation Xrotation Yrotation
                    End Site
                    {
                        OFFSET -0.000000 0.000000 7.081605
                    }
                }
            }
        }
    }
}
MOTION
Frames:    11
Frame Time:    0.008333
7.832206    139.522415    -114.239738    -0.819177    1.067637    38.105358    -0.794974    4.814278    -3.346939    -6.155947    -1.258131    -1.192537    3.518871    0.027452    -16.362535    12.977660    1.416685    -15.924049    5.747565    7.894876    -21.330500    -25.714222    17.848291    -55.335247    0.292973    -13.048628    -104.638748    5.817483    -13.340158    -13.282590    -7.938203    -0.752657    -3.438369    24.426298    -22.380951    49.843311    -24.309010    -20.465393    63.138424    -1.368234    -6.068210    34.086441    24.198370    -20.082788    8.370153    -32.729160    61.530579    -3.849876    9.113870    -36.144749    36.844582    0.000000    0.000000    0.000000    -33.700047    -35.133507    -25.528227    28.333584    50.979973    -22.125875    0.903300    -10.172338    -12.498090    0.000000    0.000000    0.000000    
7.826823    140.029724    -114.399704    -0.822516    1.065045    38.038242    -0.808146    4.745458    -3.324975    -6.170596    -1.217590    -1.183244    3.565482    -0.025560    -16.356010    12.870291    1.467678    -15.945100    5.753086    7.882865    -21.325287    -25.739506    17.820408    -55.342758    0.328163    -13.060150    -104.667427    5.726696    -13.298850    -13.323996    -7.926770    -0.763233    -3.457915    24.448328    -22.376696    49.840218    -24.228689    -20.436192    63.267555    -1.386590    -6.057051    34.135834    23.809544    -19.764475    8.227632    -31.330006    60.811333    -5.023376    9.090306    -36.001240    37.030655    0.000000    0.000000    0.000000    -33.245140    -34.979412    -25.289511    27.383005    50.409985    -21.371609    0.965660    -9.701403    -12.637330    0.000000    0.000000    0.000000    
7.812939    140.537781    -114.571091    -0.825232    1.091102    37.986145    -0.853538    4.665066    -3.319646    -6.138995    -1.186985    -1.180005    3.524340    0.014196    -16.355505    12.893974    1.406918    -15.927343    5.718815    7.891693    -21.310713    -25.717402    17.811329    -55.357822    0.339702    -13.128760    -104.718636    5.715615    -13.352871    -13.358157    -7.965735    -0.721450    -3.417608    24.456924    -22.353697    49.797935    -24.247105    -20.539686    63.369461    -1.344389    -6.111018    34.097824    23.417974    -19.517105    7.975717    -30.120062    60.090919    -6.062892    8.975776    -35.809147    37.223969    0.000000    0.000000    0.000000    -32.828823    -34.818295    -24.995428    26.554522    49.768963    -20.777422    1.034354    -9.260906    -12.720061    0.000000    0.000000    0.000000    
7.780323    141.039490    -114.731468    -0.840073    1.104363    37.940887    -0.872576    4.595397    -3.314322    -6.135911    -1.134242    -1.175474    3.474335    -0.019950    -16.362825    12.954287    1.413040    -15.921679    5.703188    7.877788    -21.286640    -25.694229    17.821569    -55.377419    0.350147    -13.199709    -104.786217    5.723459    -13.409966    -13.343633    -7.985612    -0.721518    -3.438862    24.506330    -22.324682    49.789700    -24.269615    -20.575619    63.488297    -1.321060    -6.091338    34.072845    23.054758    -19.312637    7.703701    -28.963955    59.425560    -6.982299    8.734428    -35.609940    37.316010    0.000000    0.000000    0.000000    -32.383846    -34.668694    -24.758406    25.671391    49.190475    -20.072809    1.182854    -8.884289    -12.893694    0.000000    0.000000    0.000000    
7.720567    141.535095    -114.900734    -0.898108    1.127382    37.905064    -0.882958    4.511211    -3.305009    -6.137016    -1.108385    -1.170985    3.500214    -0.026747    -16.367498    12.959773    1.382385    -15.926541    5.729695    7.866086    -21.303154    -25.715364    17.789989    -55.375778    0.330418    -13.190332    -104.841835    5.752350    -13.426587    -13.305926    -7.927842    -0.698121    -3.455992    24.444456    -22.279234    49.759510    -24.317089    -20.648071    63.541012    -1.339320    -6.128223    34.178253    22.768591    -19.167633    7.273630    -28.235601    58.692741    -7.524675    8.524337    -35.359131    37.459309    0.000000    0.000000    0.000000    -31.980658    -34.536266    -24.416693    25.174915    48.458305    -19.960651    1.207720    -8.372283    -12.949734    0.000000    0.000000    0.000000    
7.660921    142.030807    -115.075912    -0.909882    1.161012    37.852585    -0.953726    4.466409    -3.281526    -6.088053    -1.075357    -1.161768    3.522527    -0.038511    -16.351900    12.914722    1.276725    -15.907723    5.685661    7.833416    -21.277716    -25.760042    17.726397    -55.365231    0.281513    -13.057734    -104.891724    5.732876    -13.356134    -13.359927    -7.921461    -0.699084    -3.462208    24.478346    -22.328089    49.721004    -24.259840    -20.630489    63.747223    -1.380875    -6.097837    34.189701    22.432232    -18.988285    6.619005    -27.869032    57.831963    -7.671056    8.354881    -35.085457    37.683578    0.000000    0.000000    0.000000    -31.565418    -34.417324    -24.090246    24.310402    47.741909    -19.476715    1.514779    -7.768489    -12.893325    0.000000    0.000000    0.000000    
7.600837    142.510803    -115.241913    -0.938251    1.164949    37.834339    -0.971217    4.427801    -3.281945    -6.062198    -1.053766    -1.160685    3.494538    -0.048106    -16.353600    12.938831    1.250021    -15.899524    5.688479    7.846611    -21.299047    -25.778183    17.689056    -55.343605    0.303786    -13.069621    -104.937210    5.610699    -13.324387    -13.335652    -7.959327    -0.683468    -3.463171    24.528683    -22.313046    49.666759    -24.222227    -20.691147    63.935066    -1.352963    -6.120593    34.091228    22.119425    -18.831499    6.101966    -27.318213    57.109531    -8.037227    8.266452    -34.783680    37.935200    0.000000    0.000000    0.000000    -31.149698    -34.236076    -23.862541    23.571259    47.063354    -18.940977    1.605434    -7.292222    -13.003967    0.000000    0.000000    0.000000    
7.520215    142.973282    -115.402130    -1.012937    1.195579    37.823288    -0.963517    4.334015    -3.282968    -6.060201    -1.013811    -1.158564    3.472034    -0.053780    -16.379997    12.997210    1.201381    -15.911107    5.699465    7.825475    -21.297085    -25.765600    17.706186    -55.347942    0.324104    -13.113220    -104.957436    5.613097    -13.344773    -13.382678    -7.949840    -0.674500    -3.497355    24.568169    -22.323725    49.652878    -24.181995    -20.689941    64.092773    -1.373930    -6.104788    34.095741    21.878231    -18.718473    5.556890    -26.978228    56.349468    -8.276102    8.243327    -34.470196    38.256260    0.000000    0.000000    0.000000    -30.758125    -34.120007    -23.570778    22.905912    46.301098    -18.683561    1.848933    -6.610493    -12.933017    0.000000    0.000000    0.000000    
7.459365    143.423828    -115.542137    -1.028780    1.164715    37.810562    -0.977503    4.303499    -3.275823    -6.040472    -0.939910    -1.152174    3.492706    -0.076067    -16.378273    12.996918    1.153937    -15.907771    5.713169    7.831522    -21.272491    -25.739447    17.692764    -55.408257    0.315663    -13.123114    -104.964996    5.696836    -13.377441    -13.433039    -7.924037    -0.671263    -3.499902    24.531078    -22.322906    49.590321    -24.218573    -20.718876    64.186089    -1.361977    -6.079685    34.122799    21.637480    -18.507524    5.024458    -26.656937    55.597591    -8.504820    8.239264    -34.164223    38.560211    0.000000    0.000000    0.000000    -30.345352    -33.876617    -23.274069    22.275017    45.498108    -18.230856    1.913739    -6.011019    -13.019898    0.000000    0.000000    0.000000    
7.393754    143.862320    -115.694962    -1.075326    1.170772    37.782646    -0.991046    4.238035    -3.263642    -6.005329    -0.919897    -1.146819    3.495217    -0.033014    -16.371956    12.994783    1.096995    -15.894022    5.722476    7.858864    -21.294880    -25.770302    17.667650    -55.395275    0.304779    -13.129318    -104.981636    5.712121    -13.396414    -13.378143    -7.913368    -0.612957    -3.481204    24.487204    -22.321682    49.542336    -24.234713    -20.787170    64.260414    -1.280514    -6.095302    34.221272    21.409758    -18.344454    4.675462    -26.137304    54.929611    -8.934210    8.206738    -33.856377    38.818619    0.000000    0.000000    0.000000    -29.975073    -33.672947    -23.074806    21.718800    44.738621    -17.765779    1.880195    -5.435919    -13.138137    0.000000    0.000000    0.000000    
7.325473    144.275162    -115.822090    -1.112950    1.129415    37.752007    -0.966900    4.229751    -3.246093    -6.014201    -0.914308    -1.140394    3.491591    -0.054850    -16.364582    13.032895    1.123975    -15.884561    5.754437    7.850339    -21.300844    -25.745773    17.745962    -55.394596    0.378620    -13.234223    -104.968864    5.704797    -13.406163    -13.367599    -7.886900    -0.629352    -3.513410    24.568275    -22.380409    49.551704    -24.101231    -20.660854    64.464264    -1.370297    -6.013993    34.092888    21.247953    -18.134537    4.374248    -25.654766    54.176197    -9.305520    8.142471    -33.514046    39.000893    0.000000    0.000000    0.000000    -29.555096    -33.479156    -22.847857    21.131956    44.057407    -17.498205    1.857599    -4.836297    -13.077474    0.000000    0.000000    0.000000    
